#!OML:ASF X:\für Bonn\!DataBase\2005_08_12_Daniel\c3d\Daniel.ASF
:FULLY-SPECIFIED
:DEGREES
561
root 17.3729 17.4872 -23.6988 -361.345 -53.5053 360.075
lowerback 14.7746 1.47791 1.93333
upperback 3.40594 2.10883 -0.825095
thorax -4.56479 0.980263 -2.34439
lowerneck -0.598026 4.99798 -0.337158
upperneck 8.83124 6.92872 -3.64499
head 3.05958 3.27998 -0.918957
rclavicle 3.89245e-014 -2.3556e-014
rhumerus -26.2062 -14.2101 -77.251
rradius 16.6623
rwrist 24.4857
rhand -20.6182 17.9779
rfingers 7.12502
rthumb 5.743 -11.9243
lclavicle 3.89245e-014 -2.3556e-014
lhumerus -36.4575 14.4996 83.4945
lradius 28.2661
lwrist -14.7074
lhand -12.5292 -6.94815
lfingers 7.12502
lthumb 13.547 22.5912
rfemur -0.982193 7.92818 24.1321
rtibia 32.6678
rfoot -27.9977 -2.75068
rtoes -4.5022
lfemur -30.552 -1.8256 -24.9603
ltibia 62.545
lfoot -14.7674 -3.83199
ltoes -6.12617
562
root 17.2349 17.4935 -23.6065 -361.326 -53.488 360.195
lowerback 14.7481 1.5598 1.88729
upperback 3.31111 2.20656 -0.932934
thorax -4.64281 1.02747 -2.45089
lowerneck -0.534655 4.98865 -0.206067
upperneck 8.63922 6.90939 -3.69121
head 2.98945 3.27843 -0.960016
rclavicle 1.07468e-014 -1.33186e-014
rhumerus -25.8733 -12.7274 -77.9589
rradius 17.4502
rwrist 22.61
rhand -20.378 18.1352
rfingers 7.12502
rthumb 5.97486 -11.7606
lclavicle 1.07468e-014 -1.33186e-014
lhumerus -36.4514 14.2414 83.3329
lradius 27.9756
lwrist -14.4241
lhand -12.6035 -6.79025
lfingers 7.12502
lthumb 13.4754 22.7538
rfemur 0.106515 8.51237 24.3864
rtibia 31.7752
rfoot -28.2167 -3.4864
rtoes -4.80257
lfemur -31.0548 -1.99857 -25.2625
ltibia 60.384
lfoot -14.7184 -3.45021
ltoes -6.05714
563
root 17.0981 17.4959 -23.5142 -361.242 -53.5006 360.315
lowerback 14.6664 1.64236 1.78709
upperback 3.21052 2.29879 -1.00027
thorax -4.70093 1.0731 -2.48128
lowerneck -0.5536 5.00089 -0.0616293
upperneck 8.50555 6.92956 -3.83535
head 2.96069 3.29136 -1.03102
rclavicle -8.62228e-015 9.83984e-015
rhumerus -25.5387 -11.1397 -78.6384
rradius 18.3047
rwrist 20.6699
rhand -20.218 18.1801
rfingers 7.12502
rthumb 6.12932 -11.7112
lclavicle -8.62228e-015 9.83984e-015
lhumerus -36.4851 14.2358 83.1138
lradius 27.7036
lwrist -14.3971
lhand -12.6475 -6.79537
lfingers 7.12502
lthumb 13.433 22.7515
rfemur 1.12533 8.98292 24.5988
rtibia 30.8475
rfoot -28.3772 -4.13996
rtoes -4.95622
lfemur -31.554 -2.01613 -25.5656
ltibia 58.1079
lfoot -14.6028 -3.13411
ltoes -6.41112
564
root 16.9618 17.4947 -23.4217 -361.06 -53.5003 360.293
lowerback 14.6312 1.70916 1.80597
upperback 3.09814 2.38831 -1.07748
thorax -4.79146 1.11532 -2.59102
lowerneck -0.573527 5.00123 0.167555
upperneck 8.41189 6.93248 -3.98159
head 2.94921 3.29742 -1.11734
rclavicle -1.56021e-013 1.93815e-014
rhumerus -25.3105 -9.89278 -79.2093
rradius 19.1792
rwrist 19.0828
rhand -19.9864 18.172
rfingers 7.12502
rthumb 6.35292 -11.7127
lclavicle -1.56021e-013 1.93815e-014
lhumerus -36.5465 14.2693 82.8194
lradius 27.4377
lwrist -14.5164
lhand -12.6694 -6.74609
lfingers 7.12502
lthumb 13.4119 22.8022
rfemur 2.1831 9.39808 24.911
rtibia 29.8688
rfoot -28.4912 -4.83328
rtoes -5.20885
lfemur -31.9816 -1.98224 -25.7912
ltibia 55.7542
lfoot -14.492 -2.76915
ltoes -6.92172
565
root 16.8253 17.4943 -23.3281 -360.958 -53.5136 360.364
lowerback 14.6164 1.78542 1.73979
upperback 2.98404 2.47758 -1.15099
thorax -4.89857 1.15797 -2.64979
lowerneck -0.584225 4.99208 0.363575
upperneck 8.26738 6.92295 -4.1449
head 2.91794 3.29684 -1.20472
rclavicle 1.04287e-013 -1.39149e-015
rhumerus -25.0315 -8.83737 -79.6858
rradius 19.9421
rwrist 17.7581
rhand -19.7814 18.2233
rfingers 7.12502
rthumb 6.55084 -11.6554
lclavicle 1.04287e-013 -1.39149e-015
lhumerus -36.6612 14.451 82.4943
lradius 27.192
lwrist -14.7992
lhand -12.5824 -6.76129
lfingers 7.12502
lthumb 13.4958 22.7814
rfemur 3.27174 9.69377 25.1182
rtibia 28.8305
rfoot -28.5827 -5.35282
rtoes -5.63545
lfemur -32.2973 -1.97615 -26.0455
ltibia 53.2865
lfoot -14.2611 -2.34051
ltoes -6.57856
566
root 16.6862 17.4885 -23.2317 -360.626 -53.5387 360.207
lowerback 14.5076 1.83745 1.83774
upperback 2.87603 2.55839 -1.23395
thorax -4.94052 1.19562 -2.80566
lowerneck -0.533717 4.98629 0.62326
upperneck 8.06491 6.91712 -4.36777
head 2.86161 3.29993 -1.32425
rclavicle 1.43224e-013 -1.96797e-014
rhumerus -24.7772 -8.00407 -80.1539
rradius 20.6821
rwrist 16.7912
rhand -19.7119 18.2404
rfingers 7.12502
rthumb 6.61794 -11.6362
lclavicle 1.43224e-013 -1.96797e-014
lhumerus -36.7538 14.7953 81.9967
lradius 26.905
lwrist -15.3237
lhand -12.4751 -6.87557
lfingers 7.12502
lthumb 13.5991 22.6603
rfemur 4.388 10.011 25.4668
rtibia 27.6551
rfoot -28.5683 -5.8518
rtoes -5.8264
lfemur -32.6174 -2.00518 -26.1364
ltibia 50.7899
lfoot -14.0294 -1.82307
ltoes -5.7001
567
root 16.5439 17.4839 -23.1364 -360.362 -53.557 360.074
lowerback 14.441 1.9161 1.86367
upperback 2.7741 2.66506 -1.28899
thorax -5.00163 1.24644 -2.89762
lowerneck -0.440063 4.9465 0.699638
upperneck 7.8688 6.85903 -4.43505
head 2.78279 3.27666 -1.36453
rclavicle -5.36719e-015 1.19271e-015
rhumerus -24.5718 -7.18499 -80.5723
rradius 21.445
rwrist 15.7398
rhand -19.705 18.2013
rfingers 7.12502
rthumb 6.62463 -11.6751
lclavicle -5.36719e-015 1.19271e-015
lhumerus -36.8451 15.2019 81.5199
lradius 26.599
lwrist -15.9835
lhand -12.3173 -6.98767
lfingers 7.12502
lthumb 13.7512 22.5379
rfemur 5.66926 10.3942 25.8658
rtibia 26.3114
rfoot -28.552 -6.49665
rtoes -5.94791
lfemur -32.8448 -2.04418 -26.2228
ltibia 48.2915
lfoot -13.8114 -1.24151
ltoes -4.59813
568
root 16.3971 17.4809 -23.0362 -359.99 -53.5519 359.846
lowerback 14.2331 1.96227 1.92076
upperback 2.7047 2.73365 -1.31194
thorax -4.95332 1.28077 -2.95889
lowerneck -0.283607 4.93293 0.769317
upperneck 7.56871 6.83733 -4.5869
head 2.66264 3.27155 -1.43207
rclavicle 5.93869e-014 -1.09332e-014
rhumerus -24.2635 -6.50292 -80.924
rradius 22.076
rwrist 15.0373
rhand -19.7369 18.2074
rfingers 7.12502
rthumb 6.59376 -11.6699
lclavicle 5.93869e-014 -1.09332e-014
lhumerus -36.9459 15.6998 81.0259
lradius 26.323
lwrist -16.7281
lhand -12.2956 -7.07025
lfingers 7.12502
lthumb 13.7722 22.4539
rfemur 7.02696 10.7462 26.3188
rtibia 24.785
rfoot -28.4504 -7.16909
rtoes -6.29957
lfemur -33.1301 -2.06636 -26.2698
ltibia 45.8712
lfoot -13.6747 -0.621143
ltoes -3.89862
569
root 16.2457 17.4779 -22.9339 -359.594 -53.5772 359.589
lowerback 14.0222 2.0356 1.97951
upperback 2.598 2.83873 -1.34057
thorax -4.93968 1.33225 -3.03409
lowerneck -0.184618 4.90238 0.945373
upperneck 7.42097 6.79827 -4.76839
head 2.6099 3.25628 -1.52565
rclavicle -1.05654e-013 1.35174e-014
rhumerus -24.0916 -5.99758 -81.226
rradius 22.699
rwrist 14.5325
rhand -19.8974 18.183
rfingers 7.12502
rthumb 6.43884 -11.6991
lclavicle -1.05654e-013 1.35174e-014
lhumerus -37.1114 16.2875 80.4346
lradius 26.0256
lwrist -17.6837
lhand -12.1687 -7.18755
lfingers 7.12502
lthumb 13.8944 22.3283
rfemur 8.48005 11.0978 26.7776
rtibia 23.0838
rfoot -28.289 -7.73428
rtoes -6.24941
lfemur -33.4721 -2.01435 -26.3163
ltibia 43.5851
lfoot -13.7114 0.0961517
ltoes -4.10046
570
root 16.0937 17.4714 -22.8308 -359.217 -53.6473 359.347
lowerback 13.8028 2.10811 1.9985
upperback 2.51601 2.93647 -1.35978
thorax -4.89779 1.3813 -3.07389
lowerneck -0.147522 4.88 1.04146
upperneck 7.22018 6.76764 -4.90237
head 2.54536 3.2447 -1.58865
rclavicle -3.54831e-014 1.78906e-015
rhumerus -23.8094 -5.54905 -81.4886
rradius 23.1788
rwrist 14.1641
rhand -20.033 18.2345
rfingers 7.12502
rthumb 6.30793 -11.6515
lclavicle -3.54831e-014 1.78906e-015
lhumerus -37.252 17.0714 79.7979
lradius 25.6634
lwrist -18.6917
lhand -12.1906 -7.31648
lfingers 7.12502
lthumb 13.8734 22.2008
rfemur 10.0087 11.4129 27.2015
rtibia 21.2469
rfoot -28.0273 -8.25317
rtoes -6.35047
lfemur -33.8261 -1.96795 -26.3571
ltibia 41.4391
lfoot -13.9066 0.883288
ltoes -4.42987
571
root 15.9422 17.4629 -22.7266 -358.729 -53.7213 358.992
lowerback 13.5475 2.18143 2.09937
upperback 2.44944 3.04547 -1.39269
thorax -4.81375 1.43566 -3.17325
lowerneck -0.23461 4.84762 1.24219
upperneck 7.14369 6.72885 -5.06384
head 2.55038 3.22709 -1.6755
rclavicle 9.07452e-014 -2.18663e-014
rhumerus -23.4467 -5.54498 -81.7369
rradius 23.5169
rwrist 14.1413
rhand -20.2613 18.3585
rfingers 7.12502
rthumb 6.08759 -11.534
lclavicle 9.07452e-014 -2.18663e-014
lhumerus -37.3295 17.8003 79.1029
lradius 25.2624
lwrist -19.7082
lhand -12.0928 -7.4733
lfingers 7.12502
lthumb 13.9675 22.0375
rfemur 11.5495 11.6039 27.6335
rtibia 19.2887
rfoot -27.6495 -8.62265
rtoes -6.37523
lfemur -34.2299 -1.92797 -26.31
ltibia 39.4645
lfoot -14.3263 1.59678
ltoes -5.04187
572
root 15.7912 17.4487 -22.621 -358.374 -53.7923 358.74
lowerback 13.3839 2.24648 2.10431
upperback 2.35881 3.13236 -1.40154
thorax -4.81298 1.47858 -3.19448
lowerneck -0.249604 4.83124 1.37578
upperneck 7.02894 6.71162 -5.24664
head 2.52848 3.21934 -1.75917
rclavicle -2.70347e-014 5.96354e-015
rhumerus -23.0792 -5.64918 -81.8816
rradius 23.711
rwrist 14.3643
rhand -20.4649 18.4279
rfingers 7.12502
rthumb 5.89099 -11.4702
lclavicle -2.70347e-014 5.96354e-015
lhumerus -37.5116 18.7934 78.3405
lradius 24.8194
lwrist -20.9476
lhand -12.047 -7.66108
lfingers 7.12502
lthumb 14.0117 21.8467
rfemur 13.1642 11.8451 28.0308
rtibia 17.3242
rfoot -27.2154 -9.04701
rtoes -6.35393
lfemur -34.5655 -1.93706 -26.3063
ltibia 37.6284
lfoot -14.9723 2.39449
ltoes -6.08602
573
root 15.6397 17.4323 -22.5135 -357.88 -53.8946 358.355
lowerback 13.1419 2.31594 2.21571
upperback 2.30518 3.23686 -1.4349
thorax -4.7212 1.53075 -3.29842
lowerneck -0.287051 4.80682 1.51961
upperneck 6.85141 6.67788 -5.37952
head 2.48712 3.20604 -1.82871
rclavicle -5.71506e-014 2.10712e-014
rhumerus -22.6029 -6.04254 -82.0592
rradius 23.8485
rwrist 14.6898
rhand -20.6021 18.5982
rfingers 7.12502
rthumb 5.75851 -11.3036
lclavicle -5.71506e-014 2.10712e-014
lhumerus -37.5729 19.8369 77.476
lradius 24.2958
lwrist -22.2754
lhand -11.991 -7.81904
lfingers 7.12502
lthumb 14.0657 21.685
rfemur 14.7343 12.0994 28.475
rtibia 15.3592
rfoot -26.7688 -9.43867
rtoes -6.43073
lfemur -34.9655 -2.01116 -26.1821
ltibia 35.9615
lfoot -15.7479 3.42148
ltoes -8.12047
